<svg clip-rule="evenodd" fill-rule="evenodd" height="60" stroke-linejoin="round" stroke-miterlimit="2" viewBox="0 0 8090 1711" width="284" xmlns="http://www.w3.org/2000/svg"><g fill="#f05"><path d="m1530.693 0-977.585 1710.774h-325.862l977.585-1710.774z"/><path d="m2186.704 0-977.585 1710.774h-325.862l977.585-1710.774z"/><path d="m0 480.217h222.958v222.958h-222.958z"/><path d="m0 934.709h222.958v222.958h-222.958z"/></g><g fill-rule="nonzero"><path d="m2317.12 1164.521h285.472v-94.166h-190.314v-212.121h165.574v-89.21h-165.574v-204.192h187.46v-94.166h-282.617v693.855z"/><path d="m2654.929 470.666v693.855h141.784c37.111 0 92.303-6.939 134.172-54.517 38.063-43.614 42.821-94.166 42.821-141.745v-306.287c0-29.737-2.855-103.087-51.385-149.674-41.869-39.649-98.964-41.631-138.93-41.631h-128.462zm95.157 97.14h48.53c23.789 0 43.772 0 61.852 22.798 15.225 19.824 18.08 44.605 18.08 64.429v307.279c0 22.798-1.903 58.482-21.886 81.28-19.031 20.816-43.772 23.789-63.755 23.789h-42.821v-499.576z"/><path d="m3326.747 1164.521h47.579v-378.647h-176.041v89.21h80.884v93.175c0 24.781 0 58.482-17.128 81.28-12.37 16.851-35.208 27.754-55.191 27.754-22.838 0-41.869-9.912-53.288-24.781-15.225-20.816-16.177-50.552-16.177-71.368v-325.121c0-24.781 0-50.552 18.08-73.35 11.419-13.877 28.547-24.781 53.288-24.781 25.692 0 41.869 9.912 51.385 19.824 17.128 17.842 19.031 39.649 19.031 56.5v34.693h95.157v-27.754c0-64.429-22.838-109.034-48.53-135.797-26.644-27.754-68.513-44.605-117.995-44.605-36.16 0-96.109 9.912-134.172 65.421-29.499 42.623-31.402 85.245-31.402 126.876v350.892c0 31.719 3.806 81.28 34.257 120.929 31.402 40.64 71.368 49.561 105.625 49.561 16.177 0 46.627-.991 74.223-16.851 14.274-7.93 32.353-21.807 45.675-46.587l24.741 53.526z"/><path d="m3773.979 1164.521-145.591-693.855h-83.738l-145.591 693.855h95.157l31.402-148.683h121.801l31.402 148.683h95.157zm-137.978-236.902h-100.867l49.482-263.665z"/><path d="m3802.524 470.666v693.855h95.157v-299.349h56.143l92.303 299.349h98.964l-104.673-320.165c17.128-6.939 36.16-18.833 50.433-35.684 19.983-23.789 35.208-65.421 35.208-110.026v-52.535c0-51.544-13.322-93.175-35.208-120.929-44.724-57.491-115.14-54.517-163.67-54.517h-124.656zm95.157 89.21h49.482c19.983 0 42.821-1.982 61.852 17.842 12.37 12.886 21.886 36.675 21.886 63.438v49.561c0 26.763-.952 43.614-19.983 62.447-18.08 17.842-38.063 22.798-58.997 22.798h-54.24z"/><path d="m4187.915 470.666v693.855h141.784c37.111 0 92.303-6.939 134.172-54.517 38.063-43.614 42.821-94.166 42.821-141.745v-306.287c0-29.737-2.855-103.087-51.385-149.674-41.869-39.649-98.964-41.631-138.93-41.631h-128.462zm95.157 97.14h48.53c23.789 0 43.772 0 61.852 22.798 15.225 19.824 18.08 44.605 18.08 64.429v307.279c0 22.798-1.903 58.482-21.886 81.28-19.031 20.816-43.772 23.789-63.755 23.789h-42.821v-499.576z"/><path d="m4762.665 470.666v693.855h144.639c57.094 0 92.303-15.86 113.237-32.71 57.094-44.605 57.094-115.973 57.094-144.718v-52.535c0-33.702 0-52.535-19.031-87.227-8.564-14.868-19.983-31.719-45.675-43.614 9.516-5.947 23.789-15.86 36.16-31.719 24.741-30.728 28.547-62.447 28.547-108.043 0-40.64-.952-114.982-60.901-159.587-41.869-30.728-97.06-33.702-125.608-33.702zm95.157 89.21h44.724c31.402 0 50.433 10.903 61.852 22.798 10.467 11.895 18.08 29.737 18.08 47.579v42.623c0 21.807-6.661 45.596-18.08 59.473-9.516 11.895-28.547 25.772-60.901 25.772h-45.675v-198.244zm0 287.454h48.53c20.935 0 35.208 4.956 50.433 17.842 20.935 18.833 25.692 42.623 25.692 76.324v32.71c0 11.895-.952 47.579-17.128 70.377-19.983 28.745-50.433 30.728-64.707 30.728h-42.821v-227.981z"/><path d="m5144.247 1164.521h285.472v-94.166h-190.314v-212.121h165.574v-89.21h-165.574v-204.192h187.46v-94.166h-282.617v693.855z"/><path d="m5482.055 470.666v693.855h95.157v-299.349h56.143l92.303 299.349h98.964l-104.673-320.165c17.128-6.939 36.16-18.833 50.433-35.684 19.983-23.789 35.208-65.421 35.208-110.026v-52.535c0-51.544-13.322-93.175-35.208-120.929-44.724-57.491-115.14-54.517-163.67-54.517h-124.656zm95.157 89.21h49.482c19.983 0 42.821-1.982 61.852 17.842 12.37 12.886 21.886 36.675 21.886 63.438v49.561c0 26.763-.952 43.614-19.983 62.447-18.08 17.842-38.063 22.798-58.997 22.798h-54.24z"/><path d="m5867.446 1164.521h285.472v-94.166h-190.314v-212.121h165.574v-89.21h-165.574v-204.192h187.46v-94.166h-282.617v693.855z"/><path d="m6205.254 470.666v693.855h95.157v-436.137l158.913 436.137h95.157v-693.855h-95.157v436.137l-158.913-436.137z"/><path d="m6630.598 470.666v693.855h141.784c37.111 0 92.303-6.939 134.172-54.517 38.063-43.614 42.821-94.166 42.821-141.745v-306.287c0-29.737-2.855-103.087-51.385-149.674-41.869-39.649-98.964-41.631-138.93-41.631h-128.462zm95.157 97.14h48.53c23.789 0 43.772 0 61.852 22.798 15.225 19.824 18.08 44.605 18.08 64.429v307.279c0 22.798-1.903 58.482-21.886 81.28-19.031 20.816-43.772 23.789-63.755 23.789h-42.821v-499.576z"/><path d="m7241.515 662.963h95.157v-22.798c0-114.982-63.755-179.411-158.913-179.411-43.772 0-83.738 10.903-115.14 42.623-27.596 27.754-49.482 71.368-49.482 128.859v19.824c0 34.693.952 69.386 14.274 101.105 19.031 46.587 53.288 64.429 87.545 77.315l69.465 25.772c10.467 3.965 33.305 12.886 45.675 30.728s15.225 47.579 15.225 71.368v25.772c0 20.816-.952 49.561-15.225 68.394-7.613 9.912-23.789 24.781-59.949 24.781-12.37 0-36.16-1.982-52.336-22.798-13.322-17.842-15.225-45.596-15.225-61.456v-18.833h-95.157v22.798c0 8.921 0 74.342 30.45 116.964 21.886 31.719 65.658 60.465 133.22 60.465 55.191 0 98.964-18.833 123.704-45.596 27.596-29.737 45.675-83.263 45.675-153.639v-23.789c0-43.614-2.855-83.263-28.547-119.938-24.741-35.684-58.046-48.57-86.593-59.473l-58.046-21.807c-14.274-5.947-33.305-13.877-43.772-30.728-12.37-18.833-15.225-53.526-15.225-72.359 0-22.798 1.903-50.552 19.983-70.377 15.225-15.86 33.305-18.833 46.627-18.833 27.596 0 41.869 11.895 50.433 22.798 15.225 19.824 16.177 48.57 16.177 63.438v18.833z"/><path d="m7402.281 1164.521h285.472v-94.166h-190.314v-212.121h165.574v-89.21h-165.574v-204.192h187.46v-94.166h-282.617v693.855z"/><path d="m7740.101 470.666v693.855h95.157v-436.137l158.913 436.137h95.157v-693.855h-95.157v436.137l-158.913-436.137z"/></g></svg>