<?xml version="1.0" encoding="UTF-8" standalone="no"?>
<!DOCTYPE svg PUBLIC "-//W3C//DTD SVG 1.1//EN" "http://www.w3.org/Graphics/SVG/1.1/DTD/svg11.dtd">
<svg width="100%" height="100%" viewBox="0 0 219 76" version="1.1" xmlns="http://www.w3.org/2000/svg" xmlns:xlink="http://www.w3.org/1999/xlink" xml:space="preserve" xmlns:serif="http://www.serif.com/" style="fill-rule:evenodd;clip-rule:evenodd;stroke-linecap:round;">
    <g transform="matrix(1,0,0,1,-6.600012,-206.723012)">
        <g transform="matrix(1,0,0,1,0,145)">
            <g transform="matrix(0.425,0,0,0.35625,2.821,63.875)">
                <path d="M100,20L169.28,60L169.28,140L100,180L30.72,140L30.72,60L100,20Z" style="fill:none;fill-rule:nonzero;stroke:rgb(0,199,255);stroke-width:11.48px;"/>
                <path d="M100,20L100,180" style="fill:none;fill-rule:nonzero;stroke:rgb(0,199,255);stroke-width:11.48px;"/>
                <path d="M30.72,60L169.28,140" style="fill:none;fill-rule:nonzero;stroke:rgb(0,199,255);stroke-width:11.48px;"/>
                <path d="M30.72,140L169.28,60" style="fill:none;fill-rule:nonzero;stroke:rgb(0,199,255);stroke-width:11.48px;"/>
            </g>
        </g>
        <g transform="matrix(1,0,0,1,-1,-7)">
            <g transform="matrix(30,0,0,30,227.495526,263.784565)">
            </g>
            <text x="97.926px" y="263.785px" style="font-family:'DINCondensed-Regular', 'DIN Condensed', sans-serif;font-stretch:condensed;font-size:30px;">PIC<tspan x="129.906px 140.796px " y="263.785px 263.785px ">TO</tspan> GR<tspan x="188.526px " y="263.785px ">A</tspan>PH</text>
        </g>
    </g>
</svg>
