<?xml version="1.0" encoding="UTF-8" standalone="no"?><!DOCTYPE svg PUBLIC "-//W3C//DTD SVG 1.1//EN" "http://www.w3.org/Graphics/SVG/1.1/DTD/svg11.dtd"><svg width="100%" height="100%" viewBox="0 0 8090 1711" version="1.1" xmlns="http://www.w3.org/2000/svg" xmlns:xlink="http://www.w3.org/1999/xlink" xml:space="preserve" xmlns:serif="http://www.serif.com/" style="fill-rule:evenodd;clip-rule:evenodd;stroke-linejoin:round;stroke-miterlimit:2;"><g><g id=":--" serif:id="://"><path d="M1530.693,0l-977.585,1710.774l-325.862,0l977.585,-1710.774l325.862,0Z" style="fill:#f05;"/><path d="M2186.704,0l-977.585,1710.774l-325.862,0l977.585,-1710.774l325.862,0Z" style="fill:#f05;"/><rect x="0" y="480.217" width="222.958" height="222.958" style="fill:#f05;"/><rect x="0" y="934.709" width="222.958" height="222.958" style="fill:#f05;"/></g><g><g><path d="M2317.12,1164.521l285.472,0l0,-94.166l-190.314,0l0,-212.121l165.574,0l0,-89.21l-165.574,0l0,-204.192l187.46,0l0,-94.166l-282.617,0l0,693.855Z" style="fill-rule:nonzero;"/></g><g><path d="M2654.929,470.666l0,693.855l141.784,0c37.111,0 92.303,-6.939 134.172,-54.517c38.063,-43.614 42.821,-94.166 42.821,-141.745l0,-306.287c0,-29.737 -2.855,-103.087 -51.385,-149.674c-41.869,-39.649 -98.964,-41.631 -138.93,-41.631l-128.462,0Zm95.157,97.14l48.53,0c23.789,0 43.772,0 61.852,22.798c15.225,19.824 18.08,44.605 18.08,64.429l0,307.279c0,22.798 -1.903,58.482 -21.886,81.28c-19.031,20.816 -43.772,23.789 -63.755,23.789l-42.821,0l0,-499.576Z" style="fill-rule:nonzero;"/></g><g><path d="M3326.747,1164.521l47.579,0l0,-378.647l-176.041,0l0,89.21l80.884,0l0,93.175c0,24.781 0,58.482 -17.128,81.28c-12.37,16.851 -35.208,27.754 -55.191,27.754c-22.838,0 -41.869,-9.912 -53.288,-24.781c-15.225,-20.816 -16.177,-50.552 -16.177,-71.368l0,-325.121c0,-24.781 0,-50.552 18.08,-73.35c11.419,-13.877 28.547,-24.781 53.288,-24.781c25.692,0 41.869,9.912 51.385,19.824c17.128,17.842 19.031,39.649 19.031,56.5l0,34.693l95.157,0l0,-27.754c0,-64.429 -22.838,-109.034 -48.53,-135.797c-26.644,-27.754 -68.513,-44.605 -117.995,-44.605c-36.16,0 -96.109,9.912 -134.172,65.421c-29.499,42.623 -31.402,85.245 -31.402,126.876l0,350.892c0,31.719 3.806,81.28 34.257,120.929c31.402,40.64 71.368,49.561 105.625,49.561c16.177,0 46.627,-0.991 74.223,-16.851c14.274,-7.93 32.353,-21.807 45.675,-46.587l24.741,53.526Z" style="fill-rule:nonzero;"/></g><g><path d="M3773.979,1164.521l-145.591,-693.855l-83.738,0l-145.591,693.855l95.157,0l31.402,-148.683l121.801,0l31.402,148.683l95.157,0Zm-137.978,-236.902l-100.867,0l49.482,-263.665l51.385,263.665Z" style="fill-rule:nonzero;"/></g><g><path d="M3802.524,470.666l0,693.855l95.157,0l0,-299.349l56.143,0l92.303,299.349l98.964,0l-104.673,-320.165c17.128,-6.939 36.16,-18.833 50.433,-35.684c19.983,-23.789 35.208,-65.421 35.208,-110.026l0,-52.535c0,-51.544 -13.322,-93.175 -35.208,-120.929c-44.724,-57.491 -115.14,-54.517 -163.67,-54.517l-124.656,0Zm95.157,89.21l49.482,0c19.983,0 42.821,-1.982 61.852,17.842c12.37,12.886 21.886,36.675 21.886,63.438l0,49.561c0,26.763 -0.952,43.614 -19.983,62.447c-18.08,17.842 -38.063,22.798 -58.997,22.798l-54.24,0l0,-216.086Z" style="fill-rule:nonzero;"/></g><g><path d="M4187.915,470.666l0,693.855l141.784,0c37.111,0 92.303,-6.939 134.172,-54.517c38.063,-43.614 42.821,-94.166 42.821,-141.745l0,-306.287c0,-29.737 -2.855,-103.087 -51.385,-149.674c-41.869,-39.649 -98.964,-41.631 -138.93,-41.631l-128.462,0Zm95.157,97.14l48.53,0c23.789,0 43.772,0 61.852,22.798c15.225,19.824 18.08,44.605 18.08,64.429l0,307.279c0,22.798 -1.903,58.482 -21.886,81.28c-19.031,20.816 -43.772,23.789 -63.755,23.789l-42.821,0l0,-499.576Z" style="fill-rule:nonzero;"/></g><g><path d="M4762.665,470.666l0,693.855l144.639,0c57.094,0 92.303,-15.86 113.237,-32.71c57.094,-44.605 57.094,-115.973 57.094,-144.718l0,-52.535c0,-33.702 0,-52.535 -19.031,-87.227c-8.564,-14.868 -19.983,-31.719 -45.675,-43.614c9.516,-5.947 23.789,-15.86 36.16,-31.719c24.741,-30.728 28.547,-62.447 28.547,-108.043c0,-40.64 -0.952,-114.982 -60.901,-159.587c-41.869,-30.728 -97.06,-33.702 -125.608,-33.702l-128.462,0Zm95.157,89.21l44.724,0c31.402,0 50.433,10.903 61.852,22.798c10.467,11.895 18.08,29.737 18.08,47.579l0,42.623c0,21.807 -6.661,45.596 -18.08,59.473c-9.516,11.895 -28.547,25.772 -60.901,25.772l-45.675,0l0,-198.244Zm0,287.454l48.53,0c20.935,0 35.208,4.956 50.433,17.842c20.935,18.833 25.692,42.623 25.692,76.324l0,32.71c0,11.895 -0.952,47.579 -17.128,70.377c-19.983,28.745 -50.433,30.728 -64.707,30.728l-42.821,0l0,-227.981Z" style="fill-rule:nonzero;"/></g><g><path d="M5144.247,1164.521l285.472,0l0,-94.166l-190.314,0l0,-212.121l165.574,0l0,-89.21l-165.574,0l0,-204.192l187.46,0l0,-94.166l-282.617,0l0,693.855Z" style="fill-rule:nonzero;"/></g><g><path d="M5482.055,470.666l0,693.855l95.157,0l0,-299.349l56.143,0l92.303,299.349l98.964,0l-104.673,-320.165c17.128,-6.939 36.16,-18.833 50.433,-35.684c19.983,-23.789 35.208,-65.421 35.208,-110.026l0,-52.535c0,-51.544 -13.322,-93.175 -35.208,-120.929c-44.724,-57.491 -115.14,-54.517 -163.67,-54.517l-124.656,0Zm95.157,89.21l49.482,0c19.983,0 42.821,-1.982 61.852,17.842c12.37,12.886 21.886,36.675 21.886,63.438l0,49.561c0,26.763 -0.952,43.614 -19.983,62.447c-18.08,17.842 -38.063,22.798 -58.997,22.798l-54.24,0l0,-216.086Z" style="fill-rule:nonzero;"/></g><g><path d="M5867.446,1164.521l285.472,0l0,-94.166l-190.314,0l0,-212.121l165.574,0l0,-89.21l-165.574,0l0,-204.192l187.46,0l0,-94.166l-282.617,0l0,693.855Z" style="fill-rule:nonzero;"/></g><g><path d="M6205.254,470.666l0,693.855l95.157,0l0,-436.137l158.913,436.137l95.157,0l0,-693.855l-95.157,0l0,436.137l-158.913,-436.137l-95.157,0Z" style="fill-rule:nonzero;"/></g><g><path d="M6630.598,470.666l0,693.855l141.784,0c37.111,0 92.303,-6.939 134.172,-54.517c38.063,-43.614 42.821,-94.166 42.821,-141.745l0,-306.287c0,-29.737 -2.855,-103.087 -51.385,-149.674c-41.869,-39.649 -98.964,-41.631 -138.93,-41.631l-128.462,0Zm95.157,97.14l48.53,0c23.789,0 43.772,0 61.852,22.798c15.225,19.824 18.08,44.605 18.08,64.429l0,307.279c0,22.798 -1.903,58.482 -21.886,81.28c-19.031,20.816 -43.772,23.789 -63.755,23.789l-42.821,0l0,-499.576Z" style="fill-rule:nonzero;"/></g><g><path d="M7241.515,662.963l95.157,0l0,-22.798c0,-114.982 -63.755,-179.411 -158.913,-179.411c-43.772,0 -83.738,10.903 -115.14,42.623c-27.596,27.754 -49.482,71.368 -49.482,128.859l0,19.824c0,34.693 0.952,69.386 14.274,101.105c19.031,46.587 53.288,64.429 87.545,77.315l69.465,25.772c10.467,3.965 33.305,12.886 45.675,30.728c12.37,17.842 15.225,47.579 15.225,71.368l0,25.772c0,20.816 -0.952,49.561 -15.225,68.394c-7.613,9.912 -23.789,24.781 -59.949,24.781c-12.37,0 -36.16,-1.982 -52.336,-22.798c-13.322,-17.842 -15.225,-45.596 -15.225,-61.456l0,-18.833l-95.157,0l0,22.798c0,8.921 0,74.342 30.45,116.964c21.886,31.719 65.658,60.465 133.22,60.465c55.191,0 98.964,-18.833 123.704,-45.596c27.596,-29.737 45.675,-83.263 45.675,-153.639l0,-23.789c0,-43.614 -2.855,-83.263 -28.547,-119.938c-24.741,-35.684 -58.046,-48.57 -86.593,-59.473l-58.046,-21.807c-14.274,-5.947 -33.305,-13.877 -43.772,-30.728c-12.37,-18.833 -15.225,-53.526 -15.225,-72.359c0,-22.798 1.903,-50.552 19.983,-70.377c15.225,-15.86 33.305,-18.833 46.627,-18.833c27.596,0 41.869,11.895 50.433,22.798c15.225,19.824 16.177,48.57 16.177,63.438l0,18.833Z" style="fill-rule:nonzero;"/></g><g><path d="M7402.281,1164.521l285.472,0l0,-94.166l-190.314,0l0,-212.121l165.574,0l0,-89.21l-165.574,0l0,-204.192l187.46,0l0,-94.166l-282.617,0l0,693.855Z" style="fill-rule:nonzero;"/></g><g><path d="M7740.101,470.666l0,693.855l95.157,0l0,-436.137l158.913,436.137l95.157,0l0,-693.855l-95.157,0l0,436.137l-158.913,-436.137l-95.157,0Z" style="fill-rule:nonzero;"/></g></g></g></svg>